<!DOCTYPE svg PUBLIC "-//W3C//DTD SVG 1.1//EN" "https://www.w3.org/Graphics/SVG/1.1/DTD/svg11.dtd"><svg xmlns="http://www.w3.org/2000/svg" id="sfn-svg" class="sfn-workflow-graph" width="1366" height="224">  
<g transform="translate(12,12)"><g class="nodes"><g class="node-container" transform="translate(25.875,154.75)"><g class="node anchor"><circle class="shape" x="-15.875" y="-8.25" r="25.875"/><text class="label"><tspan xml:space="preserve" text-anchor="middle" alignment-baseline="central">Start</tspan></text></g></g><g class="node-container" transform="translate(1319.65625,59.875)"><g class="node anchor"><circle class="shape" x="-12.1875" y="-8.25" r="22.1875"/><text class="label"><tspan xml:space="preserve" text-anchor="middle" alignment-baseline="central">End</tspan></text></g></g><g class="node-container" transform="translate(125.125,154.75)"><g class="node state Task NotYetStarted"><rect class="shape" rx="5" ry="5" x="-48.375" y="-18.25" width="96.75" height="36.5"/><text class="label"><tspan xml:space="preserve" text-anchor="middle" alignment-baseline="central">AcquireLock</tspan></text></g></g><g class="node-container" transform="translate(261.6875,124.75)"><g class="node state Choice NotYetStarted"><rect class="shape" rx="5" ry="5" x="-63.1875" y="-18.25" width="126.375" height="36.5"/><text class="label"><tspan xml:space="preserve" text-anchor="middle" alignment-baseline="central">LockedAcquired?</tspan></text></g></g><g class="node-container" transform="translate(405.890625,33.25)"><g class="node state Task NotYetStarted"><rect class="shape" rx="5" ry="5" x="-56.015625" y="-18.25" width="112.03125" height="36.5"/><text class="label"><tspan xml:space="preserve" text-anchor="middle" alignment-baseline="central">ComputeDelta</tspan></text></g></g><g class="node-container" transform="translate(1012.046875,98.125)"><g class="node state Pass NotYetStarted"><rect class="shape" rx="5" ry="5" x="-28.796875" y="-18.25" width="57.59375" height="36.5"/><text class="label"><tspan xml:space="preserve" text-anchor="middle" alignment-baseline="central">Failed</tspan></text></g></g><g class="node-container" transform="translate(405.890625,181.375)"><g class="node state Wait NotYetStarted"><rect class="shape" rx="5" ry="5" x="-42.5" y="-18.25" width="85" height="36.5"/><text class="label"><tspan xml:space="preserve" text-anchor="middle" alignment-baseline="central">AwaitLock</tspan></text></g></g><g class="node-container" transform="translate(531.671875,33.25)"><g class="node state Wait NotYetStarted"><rect class="shape" rx="5" ry="5" x="-44.765625" y="-18.25" width="89.53125" height="36.5"/><text class="label"><tspan xml:space="preserve" text-anchor="middle" alignment-baseline="central">AwaitDelta</tspan></text></g></g><g class="node-container" transform="translate(688.78125,18.25)"><g class="node state Task NotYetStarted"><rect class="shape" rx="5" ry="5" x="-87.34375" y="-18.25" width="174.6875" height="36.5"/><text class="label"><tspan xml:space="preserve" text-anchor="middle" alignment-baseline="central">GetComputeDeltaStatus</tspan></text></g></g><g class="node-container" transform="translate(864.28125,33.25)"><g class="node state Choice NotYetStarted"><rect class="shape" rx="5" ry="5" x="-63.15625" y="-18.25" width="126.3125" height="36.5"/><text class="label"><tspan xml:space="preserve" text-anchor="middle" alignment-baseline="central">DeltaComputed?</tspan></text></g></g><g class="node-container" transform="translate(1012.046875,18.25)"><g class="node state Task NotYetStarted"><rect class="shape" rx="5" ry="5" x="-59.609375" y="-18.25" width="119.21875" height="36.5"/><text class="label"><tspan xml:space="preserve" text-anchor="middle" alignment-baseline="central">PublishUpdates</tspan></text></g></g><g class="node-container" transform="translate(1145.34375,18.25)"><g class="node state Task NotYetStarted"><rect class="shape" rx="5" ry="5" x="-48.6875" y="-18.25" width="97.375" height="36.5"/><text class="label"><tspan xml:space="preserve" text-anchor="middle" alignment-baseline="central">ReleaseLock</tspan></text></g></g><g class="node-container" transform="translate(1245.75,18.25)"><g class="node state Pass NotYetStarted"><rect class="shape" rx="5" ry="5" x="-26.71875" y="-18.25" width="53.4375" height="36.5"/><text class="label"><tspan xml:space="preserve" text-anchor="middle" alignment-baseline="central">Done</tspan></text></g></g></g><g class="edges"><g class="edge"><path class="path" marker-end="url(#arrowhead49)" d="M162.15729166666665,136.5L166.13107638888886,134.54166666666666C170.1048611111111,132.58333333333331,178.05243055555553,128.66666666666666,184.1095486111111,126.70833333333331C190.16666666666666,124.74999999999999,194.33333333333331,124.74999999999999,196.41666666666663,124.74999999999997L198.5,124.75" style="fill: none;"/><defs><marker id="arrowhead49" viewBox="0 0 10 10" refX="9" refY="5" markerUnits="strokeWidth" markerWidth="8" markerHeight="6" orient="auto"><path d="M 0 0 L 10 5 L 0 10 z"/></marker></defs></g><g class="edge"><path class="path" marker-end="url(#arrowhead50)" d="M51.75,154.75L53.83333333333333,154.74999999999997C55.916666666666664,154.75,60.08333333333333,154.75,64.25,154.74999999999997C68.41666666666666,154.75,72.58333333333333,154.75,74.66666666666667,154.74999999999997L76.75,154.75" style="fill: none;"/><defs><marker id="arrowhead50" viewBox="0 0 10 10" refX="9" refY="5" markerUnits="strokeWidth" markerWidth="8" markerHeight="6" orient="auto"><path d="M 0 0 L 10 5 L 0 10 z"/></marker></defs></g><g class="edge"><path class="path" marker-end="url(#arrowhead51)" d="M276.78364071038254,106.5L286.88220059198545,94.29166666666667C296.98076047358836,82.08333333333333,317.1778802367942,57.666666666666664,329.3597734517304,45.45833333333333C341.54166666666663,33.25,345.7083333333333,33.25,347.7916666666667,33.24999999999999L349.875,33.25" style="fill: none;"/><defs><marker id="arrowhead51" viewBox="0 0 10 10" refX="9" refY="5" markerUnits="strokeWidth" markerWidth="8" markerHeight="6" orient="auto"><path d="M 0 0 L 10 5 L 0 10 z"/></marker></defs></g><g class="edge"><path class="path" marker-end="url(#arrowhead52)" d="M324.875,124.75L326.9583333333333,124.74999999999997C329.04166666666663,124.74999999999999,333.2083333333333,124.74999999999999,346.7109375,124.74999999999997C360.21354166666663,124.74999999999999,383.0520833333333,124.74999999999999,405.890625,124.74999999999997C428.72916666666663,124.74999999999999,451.5677083333333,124.74999999999999,472.53125,124.74999999999997C493.49479166666663,124.74999999999999,512.5833333333333,124.74999999999999,531.671875,124.74999999999997C550.7604166666666,124.74999999999999,569.8489583333333,124.74999999999999,596.0338541666666,124.74999999999997C622.21875,124.74999999999999,655.5,124.74999999999999,688.78125,124.74999999999997C722.0625,124.74999999999999,755.34375,124.74999999999999,784.59375,124.74999999999997C813.84375,124.74999999999999,839.0625,124.74999999999999,864.28125,124.74999999999997C889.5,124.74999999999999,914.71875,124.74999999999999,934.546875,122.08461538461536C954.375,119.41923076923075,968.8125,114.08846153846153,976.03125,111.42307692307692L983.25,108.75769230769231" style="fill: none;"/><defs><marker id="arrowhead52" viewBox="0 0 10 10" refX="9" refY="5" markerUnits="strokeWidth" markerWidth="8" markerHeight="6" orient="auto"><path d="M 0 0 L 10 5 L 0 10 z"/></marker></defs></g><g class="edge"><path class="path" marker-end="url(#arrowhead53)" d="M294.8718093093093,143L301.9556744244244,146.89583333333331C309.03953953953953,150.79166666666666,323.20726976976977,158.58333333333331,334.6270723848849,163.4284255036108C346.046875,168.27351767388825,354.71875,170.1720353477765,359.0546875,171.12129418472063L363.390625,172.07055302166478" style="fill: none;"/><defs><marker id="arrowhead53" viewBox="0 0 10 10" refX="9" refY="5" markerUnits="strokeWidth" markerWidth="8" markerHeight="6" orient="auto"><path d="M 0 0 L 10 5 L 0 10 z"/></marker></defs></g><g class="edge"><path class="path" marker-end="url(#arrowhead54)" d="M363.390625,190.67944697833522L359.0546875,191.62870581527935C354.71875,192.57796465222347,346.046875,194.47648232611172,329.09635416666663,195.42574116305585C312.1458333333333,196.375,286.91666666666663,196.375,261.6875,196.37499999999997C236.45833333333331,196.375,211.22916666666666,196.375,192.9170733233233,192.47916666666666C174.60497997998,188.58333333333331,163.20995995995995,180.79166666666666,157.51244994994994,176.89583333333334L151.81493993993993,173" style="fill: none;"/><defs><marker id="arrowhead54" viewBox="0 0 10 10" refX="9" refY="5" markerUnits="strokeWidth" markerWidth="8" markerHeight="6" orient="auto"><path d="M 0 0 L 10 5 L 0 10 z"/></marker></defs></g><g class="edge"><path class="path" marker-end="url(#arrowhead55)" d="M461.90625,33.25L463.9895833333333,33.24999999999999C466.07291666666663,33.25,470.2395833333333,33.25,474.40625,33.24999999999999C478.57291666666663,33.25,482.73958333333326,33.25,484.82291666666663,33.24999999999999L486.90625,33.25" style="fill: none;"/><defs><marker id="arrowhead55" viewBox="0 0 10 10" refX="9" refY="5" markerUnits="strokeWidth" markerWidth="8" markerHeight="6" orient="auto"><path d="M 0 0 L 10 5 L 0 10 z"/></marker></defs></g><g class="edge"><path class="path" marker-end="url(#arrowhead56)" d="M576.4375,21.524215552523874L578.5208333333333,20.978512960436564C580.6041666666666,20.432810368349248,584.7708333333333,19.341405184174626,588.9375,18.795702592087313C593.1041666666666,18.25,597.2708333333333,18.25,599.3541666666666,18.25L601.4375,18.25" style="fill: none;"/><defs><marker id="arrowhead56" viewBox="0 0 10 10" refX="9" refY="5" markerUnits="strokeWidth" markerWidth="8" markerHeight="6" orient="auto"><path d="M 0 0 L 10 5 L 0 10 z"/></marker></defs></g><g class="edge"><path class="path" marker-end="url(#arrowhead57)" d="M776.125,18.25L778.2083333333333,18.25C780.2916666666666,18.25,784.4583333333333,18.25,788.625,18.663052457662122C792.7916666666666,19.076104915324244,796.9583333333333,19.90220983064849,799.0416666666665,20.315262288310617L801.125,20.72831474597274" style="fill: none;"/><defs><marker id="arrowhead57" viewBox="0 0 10 10" refX="9" refY="5" markerUnits="strokeWidth" markerWidth="8" markerHeight="6" orient="auto"><path d="M 0 0 L 10 5 L 0 10 z"/></marker></defs></g><g class="edge"><path class="path" marker-end="url(#arrowhead58)" d="M927.4375,20.72831474597274L929.5208333333333,20.315262288310617C931.6041666666666,19.90220983064849,935.7708333333333,19.076104915324244,939.9375,18.663052457662122C944.1041666666666,18.25,948.2708333333333,18.25,950.3541666666665,18.25L952.4375,18.25" style="fill: none;"/><defs><marker id="arrowhead58" viewBox="0 0 10 10" refX="9" refY="5" markerUnits="strokeWidth" markerWidth="8" markerHeight="6" orient="auto"><path d="M 0 0 L 10 5 L 0 10 z"/></marker></defs></g><g class="edge"><path class="path" marker-end="url(#arrowhead59)" d="M891.9649906015038,51.5L899.9604088345864,56.77083333333332C907.9558270676691,62.04166666666666,923.9466635338346,72.58333333333333,939.1608317669172,79.35579180209461C954.375,86.1282502708559,968.8125,89.1315005417118,976.03125,90.63312567713976L983.25,92.13475081256772" style="fill: none;"/><defs><marker id="arrowhead59" viewBox="0 0 10 10" refX="9" refY="5" markerUnits="strokeWidth" markerWidth="8" markerHeight="6" orient="auto"><path d="M 0 0 L 10 5 L 0 10 z"/></marker></defs></g><g class="edge"><path class="path" marker-end="url(#arrowhead60)" d="M836.5975093984962,51.5L828.6020911654134,56.77083333333332C820.6066729323308,62.04166666666666,804.6158364661653,72.58333333333333,779.9797932330827,77.85416666666667C755.34375,83.125,722.0625,83.125,688.78125,83.125C655.5,83.125,622.21875,83.125,599.5262439954051,77.85416666666666C576.8337379908103,72.58333333333333,564.7299759816207,62.04166666666666,558.6780949770258,56.77083333333333L552.6262139724311,51.5" style="fill: none;"/><defs><marker id="arrowhead60" viewBox="0 0 10 10" refX="9" refY="5" markerUnits="strokeWidth" markerWidth="8" markerHeight="6" orient="auto"><path d="M 0 0 L 10 5 L 0 10 z"/></marker></defs></g><g class="edge"><path class="path" marker-end="url(#arrowhead61)" d="M1071.65625,18.25L1073.7395833333333,18.25C1075.8229166666665,18.25,1079.9895833333333,18.25,1084.15625,18.25C1088.3229166666665,18.25,1092.4895833333333,18.25,1094.5729166666667,18.25L1096.65625,18.25" style="fill: none;"/><defs><marker id="arrowhead61" viewBox="0 0 10 10" refX="9" refY="5" markerUnits="strokeWidth" markerWidth="8" markerHeight="6" orient="auto"><path d="M 0 0 L 10 5 L 0 10 z"/></marker></defs></g><g class="edge"><path class="path" marker-end="url(#arrowhead62)" d="M1194.03125,18.25L1196.1145833333333,18.25C1198.1979166666665,18.25,1202.3645833333333,18.25,1206.53125,18.25C1210.6979166666665,18.25,1214.8645833333333,18.25,1216.9479166666665,18.25L1219.03125,18.25" style="fill: none;"/><defs><marker id="arrowhead62" viewBox="0 0 10 10" refX="9" refY="5" markerUnits="strokeWidth" markerWidth="8" markerHeight="6" orient="auto"><path d="M 0 0 L 10 5 L 0 10 z"/></marker></defs></g><g class="edge"><path class="path" marker-end="url(#arrowhead63)" d="M1272.46875,18.25L1274.5520833333333,18.25C1276.6354166666665,18.25,1280.8020833333333,18.25,1286.2993181054073,22.346681726488868C1291.7965528774812,26.44336345297774,1298.6243557549628,34.63672690595548,1302.0382571937034,38.73340863244435L1305.4521586324443,42.83009035893322" style="fill: none;"/><defs><marker id="arrowhead63" viewBox="0 0 10 10" refX="9" refY="5" markerUnits="strokeWidth" markerWidth="8" markerHeight="6" orient="auto"><path d="M 0 0 L 10 5 L 0 10 z"/></marker></defs></g><g class="edge"><path class="path" marker-end="url(#arrowhead64)" d="M1040.84375,98.125L1048.0624999999998,98.12499999999997C1055.28125,98.12499999999999,1069.71875,98.12499999999999,1087.1354166666665,98.12499999999997C1104.5520833333333,98.12499999999999,1124.9479166666665,98.12499999999999,1145.34375,98.12499999999997C1165.7395833333333,98.12499999999999,1186.1354166666665,98.12499999999999,1202.8697916666665,98.12499999999997C1219.6041666666665,98.12499999999999,1232.6770833333333,98.12499999999999,1245.75,98.12499999999997C1258.8229166666665,98.12499999999999,1271.8958333333333,98.12499999999999,1281.729397347622,94.48927265451414C1291.5629613619105,90.8535453090283,1298.157172723821,83.58209061805663,1301.4542784047765,79.94636327257078L1304.7513840857318,76.31063592708495" style="fill: none;"/><defs><marker id="arrowhead64" viewBox="0 0 10 10" refX="9" refY="5" markerUnits="strokeWidth" markerWidth="8" markerHeight="6" orient="auto"><path d="M 0 0 L 10 5 L 0 10 z"/></marker></defs></g></g></g><style xmlns="http://www.w3.org/1999/xhtml">.node &gt; .shape {stroke: #555555;stroke-width: 0.6px;fill: #FFFFFF;} path {stroke: #555;background-color: #555;stroke-width: 1px;} .node.state.NotYetStarted &gt; .shape,.node.state.Container &gt; .shape {stroke-dasharray: 5 2;} .node.state.Failed &gt; .shape,rect.legend.Failed {fill: #DE322F;} .node.state.CaughtError &gt; .shape,rect.legend.CaughtError {fill: #FFA500;} .node.state.Succeeded &gt; .shape,rect.legend.Succeeded {fill: #2BD62E;} .node.state.InProgress &gt; .shape,rect.legend.InProgress {fill: #53c9ed;} .node.state.Cancelled &gt; .shape,rect.legend.Cancelled {fill: #dddddd;} .node.anchor &gt; .shape {fill: #FFDA75;} .node.state.hovered:not(.selected):not(.NotYetStarted) &gt; .shape,.node.selected &gt; .shape {stroke: #555555;stroke-width: 2px;} .node.state.Container.Failed &gt; .shape {fill: #EE9592;} .node.state.Container.CaughtError &gt; .shape {fill: #FFD27F;} .node.state.Container.Succeeded &gt; .shape {fill: #91EA9A;} .node.state.Container.InProgress &gt; .shape {fill :#A9E4F7;} .node.state.Container.Cancelled &gt; .shape {fill: #EEEEEE;} marker {fill: #555555;} .node.anchor,.node.state.NotYetStarted {cursor: default;} .node.state {cursor: pointer;} tspan .label {font-weight: normal;font-size: 12px;text-shadow: none;} </style></svg>